<svg width="232" height="46" viewBox="0 0 232 46" fill="none" xmlns="http://www.w3.org/2000/svg">
<rect width="232.003" height="46" fill="#091931"/>
<mask id="mask0_45_2576" style="mask-type:alpha" maskUnits="userSpaceOnUse" x="56" y="8" width="30" height="30">
<rect x="56" y="8" width="30" height="30" fill="#D9D9D9"/>
</mask>
<g mask="url(#mask0_45_2576)">
<path d="M60.6265 35.2024C59.9558 35.2024 59.3816 34.9635 58.904 34.4859C58.4263 34.0083 58.1875 33.4341 58.1875 32.7633V15.6902C58.1875 15.0194 58.4263 14.4452 58.904 13.9676C59.3816 13.49 59.9558 13.2511 60.6265 13.2511H71.5107L69.0716 15.6902H60.6265V32.7633H77.6997V24.2877L80.1387 21.8487V32.7633C80.1387 33.4341 79.8999 34.0083 79.4223 34.4859C78.9446 34.9635 78.3704 35.2024 77.6997 35.2024H60.6265ZM74.2546 13.9524L75.9924 15.6597L67.9436 23.7085V25.4463H69.6509L77.7302 17.367L79.468 19.0743L71.3887 27.1536C71.1651 27.3772 70.906 27.555 70.6113 27.6871C70.3166 27.8192 70.0066 27.8853 69.6814 27.8853H66.7241C66.3786 27.8853 66.0889 27.7684 65.8552 27.5347C65.6214 27.3009 65.5046 27.0113 65.5046 26.6658V23.7085C65.5046 23.3833 65.5655 23.0733 65.6875 22.7786C65.8095 22.4839 65.9822 22.2247 66.2058 22.0011L74.2546 13.9524ZM79.468 19.0743L74.2546 13.9524L77.3034 10.9036C77.7912 10.4158 78.3755 10.1719 79.0564 10.1719C79.7373 10.1719 80.3115 10.4158 80.779 10.9036L82.4863 12.6414C82.9538 13.1089 83.1875 13.678 83.1875 14.3487C83.1875 15.0194 82.9538 15.5885 82.4863 16.056L79.468 19.0743Z" fill="white"/>
</g>
<path d="M95.8864 29H94.4091L98.6818 17.3636H100.136L104.409 29H102.932L99.4545 19.2045H99.3636L95.8864 29ZM96.4318 24.4545H102.386V25.7045H96.4318V24.4545ZM109.335 29.1818C108.608 29.1818 107.966 28.9981 107.409 28.6307C106.852 28.2595 106.417 27.7367 106.102 27.0625C105.788 26.3845 105.631 25.5833 105.631 24.6591C105.631 23.7424 105.788 22.947 106.102 22.2727C106.417 21.5985 106.854 21.0777 107.415 20.7102C107.975 20.3428 108.623 20.1591 109.358 20.1591C109.926 20.1591 110.375 20.2538 110.705 20.4432C111.038 20.6288 111.292 20.8409 111.466 21.0795C111.644 21.3144 111.782 21.5076 111.881 21.6591H111.994V17.3636H113.335V29H112.04V27.6591H111.881C111.782 27.8182 111.642 28.0189 111.46 28.2614C111.278 28.5 111.019 28.714 110.682 28.9034C110.345 29.089 109.896 29.1818 109.335 29.1818ZM109.517 27.9773C110.055 27.9773 110.509 27.8371 110.881 27.5568C111.252 27.2727 111.534 26.8807 111.727 26.3807C111.92 25.8769 112.017 25.2955 112.017 24.6364C112.017 23.9848 111.922 23.4148 111.733 22.9261C111.544 22.4337 111.263 22.0511 110.892 21.7784C110.521 21.5019 110.063 21.3636 109.517 21.3636C108.949 21.3636 108.475 21.5095 108.097 21.8011C107.722 22.089 107.439 22.4811 107.25 22.9773C107.064 23.4697 106.972 24.0227 106.972 24.6364C106.972 25.2576 107.066 25.822 107.256 26.3295C107.449 26.8333 107.733 27.2348 108.108 27.5341C108.487 27.8295 108.956 27.9773 109.517 27.9773ZM119.273 29.1818C118.545 29.1818 117.903 28.9981 117.347 28.6307C116.79 28.2595 116.354 27.7367 116.04 27.0625C115.725 26.3845 115.568 25.5833 115.568 24.6591C115.568 23.7424 115.725 22.947 116.04 22.2727C116.354 21.5985 116.792 21.0777 117.352 20.7102C117.913 20.3428 118.561 20.1591 119.295 20.1591C119.864 20.1591 120.313 20.2538 120.642 20.4432C120.975 20.6288 121.229 20.8409 121.403 21.0795C121.581 21.3144 121.72 21.5076 121.818 21.6591H121.932V17.3636H123.273V29H121.977V27.6591H121.818C121.72 27.8182 121.58 28.0189 121.398 28.2614C121.216 28.5 120.956 28.714 120.619 28.9034C120.282 29.089 119.833 29.1818 119.273 29.1818ZM119.455 27.9773C119.992 27.9773 120.447 27.8371 120.818 27.5568C121.189 27.2727 121.472 26.8807 121.665 26.3807C121.858 25.8769 121.955 25.2955 121.955 24.6364C121.955 23.9848 121.86 23.4148 121.67 22.9261C121.481 22.4337 121.201 22.0511 120.83 21.7784C120.458 21.5019 120 21.3636 119.455 21.3636C118.886 21.3636 118.413 21.5095 118.034 21.8011C117.659 22.089 117.377 22.4811 117.188 22.9773C117.002 23.4697 116.909 24.0227 116.909 24.6364C116.909 25.2576 117.004 25.822 117.193 26.3295C117.386 26.8333 117.67 27.2348 118.045 27.5341C118.424 27.8295 118.894 27.9773 119.455 27.9773ZM129.96 18.6136V17.3636H138.688V18.6136H135.028V29H133.619V18.6136H129.96ZM142.061 29.2045C141.508 29.2045 141.006 29.1004 140.555 28.892C140.105 28.6799 139.747 28.375 139.482 27.9773C139.216 27.5758 139.084 27.0909 139.084 26.5227C139.084 26.0227 139.182 25.6174 139.379 25.3068C139.576 24.9924 139.839 24.7462 140.169 24.5682C140.499 24.3902 140.862 24.2576 141.26 24.1705C141.661 24.0795 142.065 24.0076 142.47 23.9545C143 23.8864 143.43 23.8352 143.76 23.8011C144.093 23.7633 144.336 23.7008 144.487 23.6136C144.643 23.5265 144.72 23.375 144.72 23.1591V23.1136C144.72 22.553 144.567 22.1174 144.26 21.8068C143.957 21.4962 143.497 21.3409 142.879 21.3409C142.239 21.3409 141.737 21.4811 141.374 21.7614C141.01 22.0417 140.754 22.3409 140.607 22.6591L139.334 22.2045C139.561 21.6742 139.864 21.2614 140.243 20.9659C140.625 20.6667 141.042 20.4583 141.493 20.3409C141.947 20.2197 142.394 20.1591 142.834 20.1591C143.114 20.1591 143.436 20.1932 143.8 20.2614C144.167 20.3258 144.521 20.4602 144.862 20.6648C145.207 20.8693 145.493 21.178 145.72 21.5909C145.947 22.0038 146.061 22.5568 146.061 23.25V29H144.72V27.8182H144.652C144.561 28.0076 144.41 28.2102 144.197 28.4261C143.985 28.642 143.703 28.8258 143.351 28.9773C142.999 29.1288 142.569 29.2045 142.061 29.2045ZM142.266 28C142.796 28 143.243 27.8958 143.607 27.6875C143.974 27.4792 144.25 27.2102 144.436 26.8807C144.625 26.5511 144.72 26.2045 144.72 25.8409V24.6136C144.663 24.6818 144.538 24.7443 144.345 24.8011C144.156 24.8542 143.936 24.9015 143.686 24.9432C143.44 24.9811 143.199 25.0152 142.964 25.0455C142.733 25.072 142.546 25.0947 142.402 25.1136C142.054 25.1591 141.728 25.233 141.425 25.3352C141.125 25.4337 140.883 25.5833 140.697 25.7841C140.516 25.9811 140.425 26.25 140.425 26.5909C140.425 27.0568 140.597 27.4091 140.942 27.6477C141.29 27.8826 141.732 28 142.266 28ZM154.69 22.2273L153.486 22.5682C153.41 22.3674 153.298 22.1723 153.151 21.983C153.007 21.7898 152.81 21.6307 152.56 21.5057C152.31 21.3807 151.99 21.3182 151.599 21.3182C151.065 21.3182 150.62 21.4413 150.264 21.6875C149.912 21.9299 149.736 22.2386 149.736 22.6136C149.736 22.947 149.857 23.2102 150.099 23.4034C150.342 23.5966 150.721 23.7576 151.236 23.8864L152.531 24.2045C153.312 24.3939 153.893 24.6837 154.276 25.0739C154.658 25.4602 154.849 25.9583 154.849 26.5682C154.849 27.0682 154.705 27.5152 154.418 27.9091C154.134 28.303 153.736 28.6136 153.224 28.8409C152.713 29.0682 152.118 29.1818 151.44 29.1818C150.55 29.1818 149.813 28.9886 149.23 28.6023C148.647 28.2159 148.277 27.6515 148.122 26.9091L149.395 26.5909C149.516 27.0606 149.745 27.4129 150.082 27.6477C150.423 27.8826 150.868 28 151.418 28C152.043 28 152.539 27.8674 152.906 27.6023C153.277 27.3333 153.463 27.0114 153.463 26.6364C153.463 26.3333 153.357 26.0795 153.145 25.875C152.933 25.6667 152.607 25.5114 152.168 25.4091L150.713 25.0682C149.914 24.8788 149.327 24.5852 148.952 24.1875C148.58 23.786 148.395 23.2841 148.395 22.6818C148.395 22.1894 148.533 21.7538 148.81 21.375C149.09 20.9962 149.471 20.6989 149.952 20.483C150.437 20.267 150.986 20.1591 151.599 20.1591C152.463 20.1591 153.141 20.3485 153.634 20.7273C154.13 21.1061 154.482 21.6061 154.69 22.2273ZM158.118 25.8182L158.095 24.1591H158.368L162.186 20.2727H163.845L159.777 24.3864H159.663L158.118 25.8182ZM156.868 29V17.3636H158.209V29H156.868ZM162.413 29L159.004 24.6818L159.959 23.75L164.118 29H162.413Z" fill="white"/>
</svg>
