<svg width="24" height="24" viewBox="0 0 24 24" fill="none" xmlns="http://www.w3.org/2000/svg">
<path d="M2.34153 24.0149C1.69761 24.0149 1.14638 23.7856 0.687826 23.327C0.229275 22.8685 0 22.3173 0 21.6733V5.28259C0 4.63866 0.229275 4.08743 0.687826 3.62888C1.14638 3.17033 1.69761 2.94105 2.34153 2.94105H12.7906L10.4491 5.28259H2.34153V21.6733H18.7323V13.5365L21.0738 11.195V21.6733C21.0738 22.3173 20.8445 22.8685 20.386 23.327C19.9274 23.7856 19.3762 24.0149 18.7323 24.0149H2.34153ZM15.4249 3.61424L17.0932 5.25332L9.36614 12.9804V14.6487H11.0052L18.7615 6.89239L20.4299 8.53147L12.6736 16.2878C12.4589 16.5024 12.2101 16.6732 11.9272 16.8C11.6443 16.9268 11.3467 16.9903 11.0345 16.9903H8.19537C7.86365 16.9903 7.5856 16.8781 7.3612 16.6537C7.1368 16.4293 7.0246 16.1512 7.0246 15.8195V12.9804C7.0246 12.6682 7.08314 12.3706 7.20022 12.0877C7.3173 11.8047 7.48315 11.5559 7.6978 11.3413L15.4249 3.61424ZM20.4299 8.53147L15.4249 3.61424L18.3518 0.687324C18.8201 0.219017 19.3811 -0.0151367 20.0348 -0.0151367C20.6884 -0.0151367 21.2397 0.219017 21.6885 0.687324L23.3275 2.35567C23.7763 2.80446 24.0007 3.35082 24.0007 3.99474C24.0007 4.63866 23.7763 5.18502 23.3275 5.63382L20.4299 8.53147Z" fill="#CDCDCD"/>
</svg>
