<svg width="232" height="46" viewBox="0 0 232 46" fill="none" xmlns="http://www.w3.org/2000/svg">
<rect width="232" height="46" fill="#091931"/>
<path d="M78.9546 12.7727L78.9546 33.2271C78.954 33.8296 78.7143 34.4074 78.2882 34.8334C77.8622 35.2595 77.2844 35.4992 76.6819 35.4998L72.1365 35.4998C71.5339 35.4992 70.9562 35.2595 70.5301 34.8334C70.104 34.4074 69.8644 33.8296 69.8638 33.2271L69.8638 12.7727C69.8644 12.1702 70.104 11.5924 70.5301 11.1663C70.9562 10.7403 71.5339 10.5006 72.1365 10.5L76.6819 10.5C77.2844 10.5006 77.8622 10.7403 78.2882 11.1663C78.7143 11.5924 78.954 12.1701 78.9546 12.7727ZM72.1365 33.2271L76.6819 33.2271L76.6819 12.7727L72.1365 12.7727L72.1365 33.2271ZM72.1365 12.7727L72.1365 33.2271C72.1359 33.8296 71.8962 34.4073 71.4701 34.8334C71.0441 35.2595 70.4663 35.4991 69.8638 35.4997L65.3184 35.4997C64.7158 35.4991 64.1381 35.2595 63.712 34.8334C63.2859 34.4073 63.0463 33.8296 63.0456 33.227L63.0456 12.7727C63.0462 12.1701 63.2859 11.5924 63.712 11.1663C64.1381 10.7402 64.7158 10.5006 65.3184 10.5L69.8638 10.5C70.4663 10.5006 71.0441 10.7402 71.4701 11.1663C71.8962 11.5924 72.1359 12.1702 72.1365 12.7727ZM65.3184 33.227L69.8638 33.2271L69.8638 12.7727L65.3184 12.7727L65.3184 33.227ZM65.3184 12.7727L65.3184 33.227C65.3178 33.8296 65.0781 34.4073 64.652 34.8334C64.2259 35.2595 63.6482 35.4991 63.0456 35.4997L58.5002 35.4997C57.8977 35.4991 57.3199 35.2595 56.8939 34.8334C56.4678 34.4073 56.2281 33.8296 56.2275 33.227L56.2275 12.7727C56.2281 12.1701 56.4678 11.5924 56.8939 11.1663C57.3199 10.7402 57.8977 10.5006 58.5002 10.5L63.0456 10.5C63.6482 10.5006 64.2259 10.7402 64.652 11.1663C65.0781 11.5924 65.3177 12.1701 65.3184 12.7727ZM58.5002 33.227L63.0456 33.227L63.0456 12.7727L58.5002 12.7727L58.5002 33.227Z" fill="white"/>
<path d="M85.7727 12.773L85.7727 33.2273C85.7721 33.8299 85.5324 34.4076 85.1064 34.8337C84.6803 35.2598 84.1026 35.4994 83.5 35.5L78.9546 35.5C78.352 35.4994 77.7743 35.2598 77.3482 34.8337C76.9221 34.4076 76.6825 33.8296 76.6819 33.2271L76.6819 12.7727C76.6825 12.1701 76.9221 11.5927 77.3482 11.1666C77.7743 10.7405 78.352 10.5009 78.9546 10.5003L83.5 10.5003C84.1026 10.5009 84.6803 10.7405 85.1064 11.1666C85.5324 11.5927 85.7721 12.1704 85.7727 12.773ZM78.9546 33.2271L83.5 33.2273L83.5 12.773L78.9546 12.7727L78.9546 33.2271Z" fill="white"/>
<path d="M95.4091 28.5V16.8636H99.4773C100.288 16.8636 100.956 17.0038 101.483 17.2841C102.009 17.5606 102.402 17.9337 102.659 18.4034C102.917 18.8693 103.045 19.3864 103.045 19.9545C103.045 20.4545 102.956 20.8674 102.778 21.1932C102.604 21.5189 102.373 21.7765 102.085 21.9659C101.801 22.1553 101.492 22.2955 101.159 22.3864V22.5C101.515 22.5227 101.873 22.6477 102.233 22.875C102.593 23.1023 102.894 23.428 103.136 23.8523C103.379 24.2765 103.5 24.7955 103.5 25.4091C103.5 25.9924 103.367 26.517 103.102 26.983C102.837 27.4489 102.419 27.8182 101.847 28.0909C101.275 28.3636 100.53 28.5 99.6136 28.5H95.4091ZM96.8182 27.25H99.6136C100.534 27.25 101.188 27.072 101.574 26.7159C101.964 26.3561 102.159 25.9205 102.159 25.4091C102.159 25.0152 102.059 24.6515 101.858 24.3182C101.657 23.9811 101.371 23.7121 101 23.5114C100.629 23.3068 100.189 23.2045 99.6818 23.2045H96.8182V27.25ZM96.8182 21.9773H99.4318C99.8561 21.9773 100.239 21.8939 100.58 21.7273C100.924 21.5606 101.197 21.3258 101.398 21.0227C101.602 20.7197 101.705 20.3636 101.705 19.9545C101.705 19.4432 101.527 19.0095 101.17 18.6534C100.814 18.2936 100.25 18.1136 99.4773 18.1136H96.8182V21.9773ZM109.179 28.6818C108.391 28.6818 107.7 28.4943 107.105 28.1193C106.514 27.7443 106.052 27.2197 105.719 26.5455C105.389 25.8712 105.224 25.0833 105.224 24.1818C105.224 23.2727 105.389 22.4792 105.719 21.8011C106.052 21.1231 106.514 20.5966 107.105 20.2216C107.7 19.8466 108.391 19.6591 109.179 19.6591C109.967 19.6591 110.656 19.8466 111.247 20.2216C111.842 20.5966 112.304 21.1231 112.634 21.8011C112.967 22.4792 113.134 23.2727 113.134 24.1818C113.134 25.0833 112.967 25.8712 112.634 26.5455C112.304 27.2197 111.842 27.7443 111.247 28.1193C110.656 28.4943 109.967 28.6818 109.179 28.6818ZM109.179 27.4773C109.777 27.4773 110.27 27.3239 110.656 27.017C111.043 26.7102 111.329 26.3068 111.514 25.8068C111.7 25.3068 111.793 24.7652 111.793 24.1818C111.793 23.5985 111.7 23.0549 111.514 22.5511C111.329 22.0473 111.043 21.6402 110.656 21.3295C110.27 21.0189 109.777 20.8636 109.179 20.8636C108.58 20.8636 108.088 21.0189 107.702 21.3295C107.315 21.6402 107.029 22.0473 106.844 22.5511C106.658 23.0549 106.565 23.5985 106.565 24.1818C106.565 24.7652 106.658 25.3068 106.844 25.8068C107.029 26.3068 107.315 26.7102 107.702 27.017C108.088 27.3239 108.58 27.4773 109.179 27.4773ZM117.749 28.7045C117.196 28.7045 116.694 28.6004 116.243 28.392C115.792 28.1799 115.434 27.875 115.169 27.4773C114.904 27.0758 114.771 26.5909 114.771 26.0227C114.771 25.5227 114.87 25.1174 115.067 24.8068C115.264 24.4924 115.527 24.2462 115.857 24.0682C116.186 23.8902 116.55 23.7576 116.947 23.6705C117.349 23.5795 117.752 23.5076 118.158 23.4545C118.688 23.3864 119.118 23.3352 119.447 23.3011C119.781 23.2633 120.023 23.2008 120.175 23.1136C120.33 23.0265 120.408 22.875 120.408 22.6591V22.6136C120.408 22.053 120.254 21.6174 119.947 21.3068C119.644 20.9962 119.184 20.8409 118.567 20.8409C117.927 20.8409 117.425 20.9811 117.061 21.2614C116.697 21.5417 116.442 21.8409 116.294 22.1591L115.021 21.7045C115.249 21.1742 115.552 20.7614 115.93 20.4659C116.313 20.1667 116.73 19.9583 117.18 19.8409C117.635 19.7197 118.082 19.6591 118.521 19.6591C118.802 19.6591 119.124 19.6932 119.487 19.7614C119.855 19.8258 120.209 19.9602 120.55 20.1648C120.894 20.3693 121.18 20.678 121.408 21.0909C121.635 21.5038 121.749 22.0568 121.749 22.75V28.5H120.408V27.3182H120.339C120.249 27.5076 120.097 27.7102 119.885 27.9261C119.673 28.142 119.391 28.3258 119.038 28.4773C118.686 28.6288 118.256 28.7045 117.749 28.7045ZM117.953 27.5C118.483 27.5 118.93 27.3958 119.294 27.1875C119.661 26.9792 119.938 26.7102 120.124 26.3807C120.313 26.0511 120.408 25.7045 120.408 25.3409V24.1136C120.351 24.1818 120.226 24.2443 120.033 24.3011C119.843 24.3542 119.624 24.4015 119.374 24.4432C119.127 24.4811 118.887 24.5152 118.652 24.5455C118.421 24.572 118.233 24.5947 118.089 24.6136C117.741 24.6591 117.415 24.733 117.112 24.8352C116.813 24.9337 116.571 25.0833 116.385 25.2841C116.203 25.4811 116.112 25.75 116.112 26.0909C116.112 26.5568 116.285 26.9091 116.629 27.1477C116.978 27.3826 117.419 27.5 117.953 27.5ZM124.196 28.5V19.7727H125.491V21.0909H125.582C125.741 20.6591 126.029 20.3087 126.446 20.0398C126.863 19.7708 127.332 19.6364 127.855 19.6364C127.954 19.6364 128.077 19.6383 128.224 19.642C128.372 19.6458 128.484 19.6515 128.56 19.6591V21.0227C128.514 21.0114 128.41 20.9943 128.247 20.9716C128.088 20.9451 127.92 20.9318 127.741 20.9318C127.317 20.9318 126.938 21.0208 126.605 21.1989C126.276 21.3731 126.014 21.6155 125.821 21.9261C125.632 22.233 125.537 22.5833 125.537 22.9773V28.5H124.196ZM133.179 28.6818C132.452 28.6818 131.81 28.4981 131.253 28.1307C130.696 27.7595 130.26 27.2367 129.946 26.5625C129.632 25.8845 129.474 25.0833 129.474 24.1591C129.474 23.2424 129.632 22.447 129.946 21.7727C130.26 21.0985 130.698 20.5777 131.259 20.2102C131.819 19.8428 132.467 19.6591 133.202 19.6591C133.77 19.6591 134.219 19.7538 134.548 19.9432C134.882 20.1288 135.135 20.3409 135.31 20.5795C135.488 20.8144 135.626 21.0076 135.724 21.1591H135.838V16.8636H137.179V28.5H135.884V27.1591H135.724C135.626 27.3182 135.486 27.5189 135.304 27.7614C135.122 28 134.863 28.214 134.526 28.4034C134.188 28.589 133.74 28.6818 133.179 28.6818ZM133.361 27.4773C133.899 27.4773 134.353 27.3371 134.724 27.0568C135.096 26.7727 135.378 26.3807 135.571 25.8807C135.764 25.3769 135.861 24.7955 135.861 24.1364C135.861 23.4848 135.766 22.9148 135.577 22.4261C135.387 21.9337 135.107 21.5511 134.736 21.2784C134.365 21.0019 133.906 20.8636 133.361 20.8636C132.793 20.8636 132.319 21.0095 131.94 21.3011C131.565 21.589 131.283 21.9811 131.094 22.4773C130.908 22.9697 130.815 23.5227 130.815 24.1364C130.815 24.7576 130.91 25.322 131.099 25.8295C131.293 26.3333 131.577 26.7348 131.952 27.0341C132.33 27.3295 132.8 27.4773 133.361 27.4773Z" fill="white"/>
</svg>
