<svg width="232" height="46" viewBox="0 0 232 46" fill="none" xmlns="http://www.w3.org/2000/svg">
<rect width="232" height="46" fill="#091931"/>
<mask id="mask0_45_2639" style="mask-type:alpha" maskUnits="userSpaceOnUse" x="56" y="8" width="30" height="30">
<rect x="56" y="8" width="30" height="30" fill="#D9D9D9"/>
</mask>
<g mask="url(#mask0_45_2639)">
<path d="M71 30.5C69.8333 30.5 68.7188 30.6823 67.6563 31.0469C66.5938 31.4115 65.625 31.9583 64.75 32.6875V33H77.25V32.6875C76.375 31.9583 75.4062 31.4115 74.3438 31.0469C73.2812 30.6823 72.1667 30.5 71 30.5ZM62.25 31.5625C63.375 30.4583 64.6823 29.5885 66.1719 28.9531C67.6615 28.3177 69.2708 28 71 28C72.7292 28 74.3385 28.3177 75.8281 28.9531C77.3177 29.5885 78.625 30.4583 79.75 31.5625V15.5H62.25V31.5625ZM71 25.5C69.7917 25.5 68.7604 25.0729 67.9062 24.2188C67.0521 23.3646 66.625 22.3333 66.625 21.125C66.625 19.9167 67.0521 18.8854 67.9062 18.0312C68.7604 17.1771 69.7917 16.75 71 16.75C72.2083 16.75 73.2396 17.1771 74.0938 18.0312C74.9479 18.8854 75.375 19.9167 75.375 21.125C75.375 22.3333 74.9479 23.3646 74.0938 24.2188C73.2396 25.0729 72.2083 25.5 71 25.5ZM71 23C71.5208 23 71.9635 22.8177 72.3281 22.4531C72.6927 22.0885 72.875 21.6458 72.875 21.125C72.875 20.6042 72.6927 20.1615 72.3281 19.7969C71.9635 19.4323 71.5208 19.25 71 19.25C70.4792 19.25 70.0365 19.4323 69.6719 19.7969C69.3073 20.1615 69.125 20.6042 69.125 21.125C69.125 21.6458 69.3073 22.0885 69.6719 22.4531C70.0365 22.8177 70.4792 23 71 23ZM62.25 35.5C61.5625 35.5 60.974 35.2552 60.4844 34.7656C59.9948 34.276 59.75 33.6875 59.75 33V15.5C59.75 14.8125 59.9948 14.224 60.4844 13.7344C60.974 13.2448 61.5625 13 62.25 13H63.5V10.5H66V13H76V10.5H78.5V13H79.75C80.4375 13 81.026 13.2448 81.5156 13.7344C82.0052 14.224 82.25 14.8125 82.25 15.5V33C82.25 33.6875 82.0052 34.276 81.5156 34.7656C81.026 35.2552 80.4375 35.5 79.75 35.5H62.25Z" fill="white"/>
</g>
<path d="M104.773 20.5H103.364C103.28 20.0947 103.134 19.7386 102.926 19.4318C102.722 19.125 102.472 18.8674 102.176 18.6591C101.884 18.447 101.561 18.2879 101.205 18.1818C100.848 18.0758 100.477 18.0227 100.091 18.0227C99.3864 18.0227 98.7481 18.2008 98.1761 18.5568C97.608 18.9129 97.1553 19.4375 96.8182 20.1307C96.4848 20.8239 96.3182 21.6742 96.3182 22.6818C96.3182 23.6894 96.4848 24.5398 96.8182 25.233C97.1553 25.9261 97.608 26.4508 98.1761 26.8068C98.7481 27.1629 99.3864 27.3409 100.091 27.3409C100.477 27.3409 100.848 27.2879 101.205 27.1818C101.561 27.0758 101.884 26.9186 102.176 26.7102C102.472 26.4981 102.722 26.2386 102.926 25.9318C103.134 25.6212 103.28 25.2652 103.364 24.8636H104.773C104.667 25.4583 104.473 25.9905 104.193 26.4602C103.913 26.9299 103.564 27.3295 103.148 27.6591C102.731 27.9848 102.263 28.233 101.744 28.4034C101.229 28.5739 100.678 28.6591 100.091 28.6591C99.0985 28.6591 98.2159 28.4167 97.4432 27.9318C96.6705 27.447 96.0625 26.7576 95.6193 25.8636C95.1761 24.9697 94.9545 23.9091 94.9545 22.6818C94.9545 21.4545 95.1761 20.3939 95.6193 19.5C96.0625 18.6061 96.6705 17.9167 97.4432 17.4318C98.2159 16.947 99.0985 16.7045 100.091 16.7045C100.678 16.7045 101.229 16.7898 101.744 16.9602C102.263 17.1307 102.731 17.3807 103.148 17.7102C103.564 18.036 103.913 18.4337 104.193 18.9034C104.473 19.3693 104.667 19.9015 104.773 20.5ZM110.413 28.6818C109.625 28.6818 108.934 28.4943 108.339 28.1193C107.749 27.7443 107.286 27.2197 106.953 26.5455C106.624 25.8712 106.459 25.0833 106.459 24.1818C106.459 23.2727 106.624 22.4792 106.953 21.8011C107.286 21.1231 107.749 20.5966 108.339 20.2216C108.934 19.8466 109.625 19.6591 110.413 19.6591C111.201 19.6591 111.891 19.8466 112.482 20.2216C113.076 20.5966 113.538 21.1231 113.868 21.8011C114.201 22.4792 114.368 23.2727 114.368 24.1818C114.368 25.0833 114.201 25.8712 113.868 26.5455C113.538 27.2197 113.076 27.7443 112.482 28.1193C111.891 28.4943 111.201 28.6818 110.413 28.6818ZM110.413 27.4773C111.012 27.4773 111.504 27.3239 111.891 27.017C112.277 26.7102 112.563 26.3068 112.749 25.8068C112.934 25.3068 113.027 24.7652 113.027 24.1818C113.027 23.5985 112.934 23.0549 112.749 22.5511C112.563 22.0473 112.277 21.6402 111.891 21.3295C111.504 21.0189 111.012 20.8636 110.413 20.8636C109.815 20.8636 109.322 21.0189 108.936 21.3295C108.55 21.6402 108.264 22.0473 108.078 22.5511C107.893 23.0549 107.8 23.5985 107.8 24.1818C107.8 24.7652 107.893 25.3068 108.078 25.8068C108.264 26.3068 108.55 26.7102 108.936 27.017C109.322 27.3239 109.815 27.4773 110.413 27.4773ZM117.756 23.25V28.5H116.415V19.7727H117.71V21.1364H117.824C118.028 20.6932 118.339 20.3371 118.756 20.0682C119.172 19.7955 119.71 19.6591 120.369 19.6591C120.96 19.6591 121.477 19.7803 121.92 20.0227C122.364 20.2614 122.708 20.625 122.955 21.1136C123.201 21.5985 123.324 22.2121 123.324 22.9545V28.5H121.983V23.0455C121.983 22.3598 121.805 21.8258 121.449 21.4432C121.093 21.0568 120.604 20.8636 119.983 20.8636C119.555 20.8636 119.172 20.9564 118.835 21.142C118.502 21.3277 118.239 21.5985 118.045 21.9545C117.852 22.3106 117.756 22.7424 117.756 23.25ZM129.57 19.7727V20.9091H125.047V19.7727H129.57ZM126.365 17.6818H127.706V26C127.706 26.3788 127.761 26.6629 127.871 26.8523C127.984 27.0379 128.128 27.1629 128.303 27.2273C128.481 27.2879 128.668 27.3182 128.865 27.3182C129.013 27.3182 129.134 27.3106 129.229 27.2955C129.323 27.2765 129.399 27.2614 129.456 27.25L129.729 28.4545C129.638 28.4886 129.511 28.5227 129.348 28.5568C129.185 28.5947 128.979 28.6136 128.729 28.6136C128.35 28.6136 127.979 28.5322 127.615 28.3693C127.255 28.2064 126.956 27.9583 126.717 27.625C126.482 27.2917 126.365 26.8712 126.365 26.3636V17.6818ZM134.155 28.7045C133.602 28.7045 133.1 28.6004 132.649 28.392C132.198 28.1799 131.84 27.875 131.575 27.4773C131.31 27.0758 131.178 26.5909 131.178 26.0227C131.178 25.5227 131.276 25.1174 131.473 24.8068C131.67 24.4924 131.933 24.2462 132.263 24.0682C132.592 23.8902 132.956 23.7576 133.354 23.6705C133.755 23.5795 134.159 23.5076 134.564 23.4545C135.094 23.3864 135.524 23.3352 135.854 23.3011C136.187 23.2633 136.429 23.2008 136.581 23.1136C136.736 23.0265 136.814 22.875 136.814 22.6591V22.6136C136.814 22.053 136.661 21.6174 136.354 21.3068C136.051 20.9962 135.59 20.8409 134.973 20.8409C134.333 20.8409 133.831 20.9811 133.467 21.2614C133.104 21.5417 132.848 21.8409 132.7 22.1591L131.428 21.7045C131.655 21.1742 131.958 20.7614 132.337 20.4659C132.719 20.1667 133.136 19.9583 133.587 19.8409C134.041 19.7197 134.488 19.6591 134.928 19.6591C135.208 19.6591 135.53 19.6932 135.893 19.7614C136.261 19.8258 136.615 19.9602 136.956 20.1648C137.301 20.3693 137.587 20.678 137.814 21.0909C138.041 21.5038 138.155 22.0568 138.155 22.75V28.5H136.814V27.3182H136.746C136.655 27.5076 136.503 27.7102 136.291 27.9261C136.079 28.142 135.797 28.3258 135.445 28.4773C135.092 28.6288 134.662 28.7045 134.155 28.7045ZM134.359 27.5C134.89 27.5 135.337 27.3958 135.7 27.1875C136.068 26.9792 136.344 26.7102 136.53 26.3807C136.719 26.0511 136.814 25.7045 136.814 25.3409V24.1136C136.757 24.1818 136.632 24.2443 136.439 24.3011C136.25 24.3542 136.03 24.4015 135.78 24.4432C135.534 24.4811 135.293 24.5152 135.058 24.5455C134.827 24.572 134.64 24.5947 134.496 24.6136C134.147 24.6591 133.821 24.733 133.518 24.8352C133.219 24.9337 132.977 25.0833 132.791 25.2841C132.609 25.4811 132.518 25.75 132.518 26.0909C132.518 26.5568 132.691 26.9091 133.036 27.1477C133.384 27.3826 133.825 27.5 134.359 27.5ZM144.148 28.6818C143.33 28.6818 142.625 28.4886 142.034 28.1023C141.443 27.7159 140.989 27.1837 140.67 26.5057C140.352 25.8277 140.193 25.053 140.193 24.1818C140.193 23.2955 140.356 22.5133 140.682 21.8352C141.011 21.1534 141.47 20.6212 142.057 20.2386C142.648 19.8523 143.337 19.6591 144.125 19.6591C144.739 19.6591 145.292 19.7727 145.784 20C146.277 20.2273 146.68 20.5455 146.994 20.9545C147.309 21.3636 147.504 21.8409 147.58 22.3864H146.239C146.136 21.9886 145.909 21.6364 145.557 21.3295C145.208 21.0189 144.739 20.8636 144.148 20.8636C143.625 20.8636 143.167 21 142.773 21.2727C142.383 21.5417 142.078 21.9223 141.858 22.4148C141.642 22.9034 141.534 23.4773 141.534 24.1364C141.534 24.8106 141.64 25.3977 141.852 25.8977C142.068 26.3977 142.371 26.786 142.761 27.0625C143.155 27.339 143.617 27.4773 144.148 27.4773C144.496 27.4773 144.812 27.4167 145.097 27.2955C145.381 27.1742 145.621 27 145.818 26.7727C146.015 26.5455 146.155 26.2727 146.239 25.9545H147.58C147.504 26.4697 147.316 26.9337 147.017 27.3466C146.722 27.7557 146.33 28.0814 145.841 28.3239C145.356 28.5625 144.792 28.6818 144.148 28.6818ZM153.335 19.7727V20.9091H148.812V19.7727H153.335ZM150.131 17.6818H151.472V26C151.472 26.3788 151.527 26.6629 151.636 26.8523C151.75 27.0379 151.894 27.1629 152.068 27.2273C152.246 27.2879 152.434 27.3182 152.631 27.3182C152.778 27.3182 152.9 27.3106 152.994 27.2955C153.089 27.2765 153.165 27.2614 153.222 27.25L153.494 28.4545C153.403 28.4886 153.277 28.5227 153.114 28.5568C152.951 28.5947 152.744 28.6136 152.494 28.6136C152.116 28.6136 151.744 28.5322 151.381 28.3693C151.021 28.2064 150.722 27.9583 150.483 27.625C150.248 27.2917 150.131 26.8712 150.131 26.3636V17.6818ZM161.378 21.7273L160.173 22.0682C160.098 21.8674 159.986 21.6723 159.838 21.483C159.694 21.2898 159.497 21.1307 159.247 21.0057C158.997 20.8807 158.677 20.8182 158.287 20.8182C157.753 20.8182 157.308 20.9413 156.952 21.1875C156.599 21.4299 156.423 21.7386 156.423 22.1136C156.423 22.447 156.545 22.7102 156.787 22.9034C157.029 23.0966 157.408 23.2576 157.923 23.3864L159.219 23.7045C159.999 23.8939 160.58 24.1837 160.963 24.5739C161.346 24.9602 161.537 25.4583 161.537 26.0682C161.537 26.5682 161.393 27.0152 161.105 27.4091C160.821 27.803 160.423 28.1136 159.912 28.3409C159.401 28.5682 158.806 28.6818 158.128 28.6818C157.238 28.6818 156.501 28.4886 155.918 28.1023C155.334 27.7159 154.965 27.1515 154.81 26.4091L156.082 26.0909C156.204 26.5606 156.433 26.9129 156.77 27.1477C157.111 27.3826 157.556 27.5 158.105 27.5C158.73 27.5 159.226 27.3674 159.594 27.1023C159.965 26.8333 160.151 26.5114 160.151 26.1364C160.151 25.8333 160.045 25.5795 159.832 25.375C159.62 25.1667 159.295 25.0114 158.855 24.9091L157.401 24.5682C156.601 24.3788 156.014 24.0852 155.639 23.6875C155.268 23.286 155.082 22.7841 155.082 22.1818C155.082 21.6894 155.221 21.2538 155.497 20.875C155.777 20.4962 156.158 20.1989 156.639 19.983C157.124 19.767 157.673 19.6591 158.287 19.6591C159.151 19.6591 159.829 19.8485 160.321 20.2273C160.817 20.6061 161.17 21.1061 161.378 21.7273Z" fill="white"/>
</svg>
