<svg width="232" height="46" viewBox="0 0 232 46" fill="none" xmlns="http://www.w3.org/2000/svg">
<rect width="232" height="46" fill="#091931"/>
<path d="M81.2273 10.5H60.7727H60.5C59.3954 10.5 58.5 11.3957 58.5 12.5003C58.5 12.6801 58.5 12.8075 58.5 12.84V33.2945V33.5C58.5 34.6046 59.3957 35.5 60.5003 35.5C60.6438 35.5 60.744 35.5 60.7727 35.5H81.2273C81.256 35.5 81.3562 35.5 81.4997 35.5C82.6043 35.5 83.5 34.6041 83.5 33.4995C83.5 33.3927 83.5 33.3188 83.5 33.2945V12.8399C83.5 12.8074 83.5 12.6801 83.5 12.5003C83.5 11.3957 82.6043 10.5 81.4997 10.5C81.3562 10.5 81.256 10.5 81.2273 10.5ZM73.2727 33.2945H60.7727V24.2036H73.2727V33.2945ZM73.2727 21.9309H60.7727V12.84L73.2727 12.8399V21.9309ZM81.2273 33.2945H75.5455V12.84H81.2273V33.2945Z" fill="white"/>
<path d="M101.773 19.7727C101.705 19.197 101.428 18.75 100.943 18.4318C100.458 18.1136 99.8636 17.9545 99.1591 17.9545C98.6439 17.9545 98.1932 18.0379 97.8068 18.2045C97.4242 18.3712 97.125 18.6004 96.9091 18.892C96.697 19.1837 96.5909 19.5152 96.5909 19.8864C96.5909 20.197 96.6648 20.464 96.8125 20.6875C96.964 20.9072 97.1572 21.0909 97.392 21.2386C97.6269 21.3826 97.8731 21.5019 98.1307 21.5966C98.3883 21.6875 98.625 21.7614 98.8409 21.8182L100.023 22.1364C100.326 22.2159 100.663 22.3258 101.034 22.4659C101.409 22.6061 101.767 22.7973 102.108 23.0398C102.453 23.2784 102.737 23.5852 102.96 23.9602C103.184 24.3352 103.295 24.7955 103.295 25.3409C103.295 25.9697 103.131 26.5379 102.801 27.0455C102.475 27.553 101.998 27.9564 101.369 28.2557C100.744 28.5549 99.9848 28.7045 99.0909 28.7045C98.2576 28.7045 97.536 28.5701 96.9261 28.3011C96.3201 28.0322 95.8428 27.6572 95.4943 27.1761C95.1496 26.6951 94.9545 26.1364 94.9091 25.5H96.3636C96.4015 25.9394 96.5492 26.303 96.8068 26.5909C97.0682 26.875 97.3977 27.0871 97.7955 27.2273C98.197 27.3636 98.6288 27.4318 99.0909 27.4318C99.6288 27.4318 100.112 27.3447 100.54 27.1705C100.968 26.9924 101.307 26.7462 101.557 26.4318C101.807 26.1136 101.932 25.7424 101.932 25.3182C101.932 24.9318 101.824 24.6174 101.608 24.375C101.392 24.1326 101.108 23.9356 100.756 23.7841C100.403 23.6326 100.023 23.5 99.6136 23.3864L98.1818 22.9773C97.2727 22.7159 96.553 22.3428 96.0227 21.858C95.4924 21.3731 95.2273 20.7386 95.2273 19.9545C95.2273 19.303 95.4034 18.7348 95.7557 18.25C96.1117 17.7614 96.589 17.3826 97.1875 17.1136C97.7898 16.8409 98.4621 16.7045 99.2045 16.7045C99.9545 16.7045 100.621 16.839 101.205 17.108C101.788 17.3731 102.25 17.7367 102.591 18.1989C102.936 18.661 103.117 19.1856 103.136 19.7727H101.773ZM110.93 24.9318V19.7727H112.271V28.5H110.93V27.0227H110.839C110.635 27.4659 110.317 27.8428 109.885 28.1534C109.453 28.4602 108.908 28.6136 108.249 28.6136C107.703 28.6136 107.218 28.4943 106.794 28.2557C106.37 28.0133 106.036 27.6496 105.794 27.1648C105.552 26.6761 105.43 26.0606 105.43 25.3182V19.7727H106.771V25.2273C106.771 25.8636 106.949 26.3712 107.305 26.75C107.665 27.1288 108.124 27.3182 108.68 27.3182C109.014 27.3182 109.353 27.233 109.697 27.0625C110.046 26.892 110.338 26.6307 110.572 26.2784C110.811 25.9261 110.93 25.4773 110.93 24.9318ZM114.727 28.5V19.7727H116.023V21.1364H116.136C116.318 20.6705 116.612 20.3087 117.017 20.0511C117.422 19.7898 117.909 19.6591 118.477 19.6591C119.053 19.6591 119.532 19.7898 119.915 20.0511C120.301 20.3087 120.602 20.6705 120.818 21.1364H120.909C121.133 20.6856 121.468 20.3277 121.915 20.0625C122.362 19.7936 122.898 19.6591 123.523 19.6591C124.303 19.6591 124.941 19.9034 125.438 20.392C125.934 20.8769 126.182 21.6326 126.182 22.6591V28.5H124.841V22.6591C124.841 22.0152 124.665 21.5549 124.312 21.2784C123.96 21.0019 123.545 20.8636 123.068 20.8636C122.455 20.8636 121.979 21.0492 121.642 21.4205C121.305 21.7879 121.136 22.2538 121.136 22.8182V28.5H119.773V22.5227C119.773 22.0265 119.612 21.6269 119.29 21.3239C118.968 21.017 118.553 20.8636 118.045 20.8636C117.697 20.8636 117.371 20.9564 117.068 21.142C116.769 21.3277 116.527 21.5852 116.341 21.9148C116.159 22.2405 116.068 22.6174 116.068 23.0455V28.5H114.727ZM128.634 28.5V19.7727H129.929V21.1364H130.043C130.224 20.6705 130.518 20.3087 130.923 20.0511C131.329 19.7898 131.815 19.6591 132.384 19.6591C132.959 19.6591 133.438 19.7898 133.821 20.0511C134.207 20.3087 134.509 20.6705 134.724 21.1364H134.815C135.039 20.6856 135.374 20.3277 135.821 20.0625C136.268 19.7936 136.804 19.6591 137.429 19.6591C138.209 19.6591 138.848 19.9034 139.344 20.392C139.84 20.8769 140.088 21.6326 140.088 22.6591V28.5H138.747V22.6591C138.747 22.0152 138.571 21.5549 138.219 21.2784C137.866 21.0019 137.452 20.8636 136.974 20.8636C136.361 20.8636 135.885 21.0492 135.548 21.4205C135.211 21.7879 135.043 22.2538 135.043 22.8182V28.5H133.679V22.5227C133.679 22.0265 133.518 21.6269 133.196 21.3239C132.874 21.017 132.459 20.8636 131.952 20.8636C131.603 20.8636 131.277 20.9564 130.974 21.142C130.675 21.3277 130.433 21.5852 130.247 21.9148C130.065 22.2405 129.974 22.6174 129.974 23.0455V28.5H128.634ZM145.108 28.7045C144.555 28.7045 144.053 28.6004 143.602 28.392C143.152 28.1799 142.794 27.875 142.528 27.4773C142.263 27.0758 142.131 26.5909 142.131 26.0227C142.131 25.5227 142.229 25.1174 142.426 24.8068C142.623 24.4924 142.886 24.2462 143.216 24.0682C143.545 23.8902 143.909 23.7576 144.307 23.6705C144.708 23.5795 145.112 23.5076 145.517 23.4545C146.047 23.3864 146.477 23.3352 146.807 23.3011C147.14 23.2633 147.383 23.2008 147.534 23.1136C147.689 23.0265 147.767 22.875 147.767 22.6591V22.6136C147.767 22.053 147.614 21.6174 147.307 21.3068C147.004 20.9962 146.544 20.8409 145.926 20.8409C145.286 20.8409 144.784 20.9811 144.42 21.2614C144.057 21.5417 143.801 21.8409 143.653 22.1591L142.381 21.7045C142.608 21.1742 142.911 20.7614 143.29 20.4659C143.672 20.1667 144.089 19.9583 144.54 19.8409C144.994 19.7197 145.441 19.6591 145.881 19.6591C146.161 19.6591 146.483 19.6932 146.847 19.7614C147.214 19.8258 147.568 19.9602 147.909 20.1648C148.254 20.3693 148.54 20.678 148.767 21.0909C148.994 21.5038 149.108 22.0568 149.108 22.75V28.5H147.767V27.3182H147.699C147.608 27.5076 147.456 27.7102 147.244 27.9261C147.032 28.142 146.75 28.3258 146.398 28.4773C146.045 28.6288 145.616 28.7045 145.108 28.7045ZM145.312 27.5C145.843 27.5 146.29 27.3958 146.653 27.1875C147.021 26.9792 147.297 26.7102 147.483 26.3807C147.672 26.0511 147.767 25.7045 147.767 25.3409V24.1136C147.71 24.1818 147.585 24.2443 147.392 24.3011C147.203 24.3542 146.983 24.4015 146.733 24.4432C146.487 24.4811 146.246 24.5152 146.011 24.5455C145.78 24.572 145.593 24.5947 145.449 24.6136C145.1 24.6591 144.775 24.733 144.472 24.8352C144.172 24.9337 143.93 25.0833 143.744 25.2841C143.563 25.4811 143.472 25.75 143.472 26.0909C143.472 26.5568 143.644 26.9091 143.989 27.1477C144.337 27.3826 144.778 27.5 145.312 27.5ZM151.555 28.5V19.7727H152.851V21.0909H152.942C153.101 20.6591 153.389 20.3087 153.805 20.0398C154.222 19.7708 154.692 19.6364 155.214 19.6364C155.313 19.6364 155.436 19.6383 155.584 19.642C155.732 19.6458 155.843 19.6515 155.919 19.6591V21.0227C155.874 21.0114 155.769 20.9943 155.607 20.9716C155.447 20.9451 155.279 20.9318 155.101 20.9318C154.677 20.9318 154.298 21.0208 153.964 21.1989C153.635 21.3731 153.374 21.6155 153.18 21.9261C152.991 22.233 152.896 22.5833 152.896 22.9773V28.5H151.555ZM158.638 31.7727C158.411 31.7727 158.208 31.7538 158.03 31.7159C157.852 31.6818 157.729 31.6477 157.661 31.6136L158.001 30.4318C158.327 30.5152 158.615 30.5455 158.865 30.5227C159.115 30.5 159.337 30.3883 159.53 30.1875C159.727 29.9905 159.907 29.6705 160.07 29.2273L160.32 28.5455L157.092 19.7727H158.547L160.956 26.7273H161.047L163.456 19.7727H164.911L161.206 29.7727C161.039 30.2235 160.833 30.5966 160.587 30.892C160.34 31.1913 160.054 31.4129 159.729 31.5568C159.407 31.7008 159.043 31.7727 158.638 31.7727Z" fill="white"/>
</svg>
