<svg width="24" height="24" viewBox="0 0 24 24" fill="none" xmlns="http://www.w3.org/2000/svg">
<path d="M20.1818 2.00012H3.81818C2.81403 2.00012 2 2.8151 2 3.81926C2 3.84502 2 3.8631 2 3.8721V20.2357C2 21.2102 2.79089 22.0001 3.76533 22.0001C3.79099 22.0001 3.80908 22.0001 3.81818 22.0001H20.1818C20.1909 22.0001 20.209 22.0001 20.2347 22.0001C21.2091 22.0001 22 21.2102 22 20.2357V3.87208C22 3.86308 22 3.84501 22 3.81926C22 2.8151 21.186 2.00012 20.1818 2.00012ZM13.8182 20.2357H3.81818V12.963H13.8182V20.2357ZM13.8182 11.1448H3.81818V3.8721L13.8182 3.87208V11.1448ZM20.1818 20.2357H15.6364V3.8721H20.1818V20.2357Z" fill="#CDCDCD"/>
</svg>
