<svg width="24" height="24" viewBox="0 0 24 24" fill="none" xmlns="http://www.w3.org/2000/svg">
<path d="M20.1818 2H3.81818C2.81403 2 2 2.81498 2 3.81914C2 3.8449 2 3.86298 2 3.87198V20.2356C2 21.2101 2.79089 22 3.76533 22C3.79099 22 3.80908 22 3.81818 22H20.1818C20.1909 22 20.209 22 20.2347 22C21.2091 22 22 21.2101 22 20.2356V3.87195C22 3.86296 22 3.84488 22 3.81914C22 2.81498 21.186 2 20.1818 2ZM13.8182 20.2356H3.81818V12.9629H13.8182V20.2356ZM13.8182 11.1447H3.81818V3.87198L13.8182 3.87195V11.1447ZM20.1818 20.2356H15.6364V3.87198H20.1818V20.2356Z" fill="white"/>
</svg>
